<?xml version='1.0' encoding='iso-8859-1'?>
<!DOCTYPE svg PUBLIC '-//W3C//DTD SVG 1.1//EN' 'http://www.w3.org/Graphics/SVG/1.1/DTD/svg11.dtd'>
<svg version="1.1" xmlns="http://www.w3.org/2000/svg" viewBox="0 0 297 297" xmlns:xlink="http://www.w3.org/1999/xlink" enable-background="new 0 0 297 297">
  <g>
    <path d="m38.601,108.174c-4.422,0-8.307,2.932-9.521,7.184l-10.456,36.621 106.492,24.676v-19.1c0-3.828 3.103-6.932 6.931-6.932h32.908c3.828,0 6.931,3.104 6.931,6.932v19.1l106.495-24.676-10.454-36.621c-1.215-4.252-5.1-7.184-9.522-7.184h-219.804z"/>
    <path d="m97.104,94.453c8.552-19.939 28.363-33.945 51.396-33.945s42.845,14.006 51.396,33.945h21.057c-9.436-31.07-38.342-53.748-72.453-53.748-34.111,0-63.017,22.678-72.453,53.748h21.057z"/>
    <path d="m295.407,211.625l-13.217-46.301-110.305,25.559v16.031c0,3.828-3.103,6.932-6.931,6.932h-32.908c-3.828,0-6.931-3.104-6.931-6.932v-16.031l-110.302-25.559-13.22,46.299c-3.263,11.42-1.463,22.84 4.94,31.326 6.397,8.48 16.869,13.346 28.731,13.346h226.472c11.862,0 22.335-4.865 28.732-13.346 6.402-8.486 8.202-19.906 4.939-31.324z"/>
  </g>
</svg>
